<?xml version="1.0" encoding="UTF-8" ?>
<!DOCTYPE svg PUBLIC "-//W3C//DTD SVG 1.1//EN" "http://www.w3.org/Graphics/SVG/1.1/DTD/svg11.dtd">
<svg width="225pt" height="225pt" viewBox="0 0 225 225" version="1.1" xmlns="http://www.w3.org/2000/svg">
<g id="#fcfcfcfc">
<path fill="#fcfcfc" opacity="1.00" d=" M 86.32 21.40 C 104.43 18.25 121.94 36.39 118.56 54.37 C 116.44 69.10 101.84 80.36 87.07 78.86 C 77.86 77.46 68.43 72.01 64.69 63.19 C 61.95 62.42 60.72 66.54 58.83 67.82 C 54.79 73.89 48.35 78.07 44.11 83.84 C 61.30 93.58 63.46 121.62 46.98 132.97 C 46.32 135.15 40.33 134.88 41.20 137.77 C 49.21 145.33 56.57 153.70 64.81 160.93 C 69.02 154.53 75.11 148.30 82.97 146.95 C 98.87 141.93 116.42 154.57 118.47 170.65 C 120.52 180.71 115.32 191.25 107.68 197.64 C 95.42 207.52 76.09 204.75 66.91 192.09 C 62.97 184.58 55.25 180.28 50.65 173.30 C 38.33 160.96 26.15 148.53 14.37 135.72 C 14.03 131.74 10.88 129.35 8.24 126.75 C 3.28 119.74 1.54 110.26 3.97 101.98 C 5.33 93.20 12.47 86.95 19.77 82.76 C 25.89 74.01 35.12 67.95 41.35 59.30 C 49.77 50.06 59.55 42.11 67.25 32.24 C 71.99 26.47 78.91 22.36 86.32 21.40 M 27.33 95.38 C 19.70 96.87 14.81 105.83 17.82 113.10 C 19.27 118.86 24.45 122.68 30.07 123.90 C 39.74 123.20 46.88 111.99 42.02 102.96 C 40.04 97.06 33.12 94.15 27.33 95.38 Z" />
<path fill="#fcfcfc" opacity="1.00" d=" M 201.35 97.48 C 212.64 95.10 224.03 106.42 221.69 117.72 C 221.11 121.79 216.19 119.44 213.28 120.33 C 208.24 121.55 202.76 119.89 197.98 122.19 C 200.91 127.49 208.22 128.58 213.01 125.03 C 217.60 121.52 219.66 128.57 220.78 131.83 C 217.57 135.27 212.92 138.08 208.01 137.05 C 201.59 137.63 194.83 136.81 190.17 131.84 C 179.55 120.97 185.53 98.97 201.35 97.48 M 200.24 108.13 C 198.59 109.69 197.17 111.65 196.93 113.96 C 199.70 113.96 205.24 113.97 208.01 113.98 C 209.20 109.68 204.54 105.84 200.24 108.13 Z" />
<path fill="#fcfcfc" opacity="1.00" d=" M 112.33 98.40 C 118.98 96.88 126.06 98.35 131.34 102.66 C 140.19 110.91 139.24 127.42 129.03 134.03 C 122.12 138.22 113.09 137.84 106.21 133.78 C 103.45 130.42 98.72 128.12 98.95 123.02 C 96.54 116.58 99.46 109.92 102.18 104.16 C 105.27 101.80 108.43 99.19 112.33 98.40 M 116.27 110.28 C 112.85 111.95 108.83 115.13 111.28 119.69 C 112.25 122.86 115.55 124.97 118.74 124.70 C 120.94 123.50 124.07 121.86 124.02 119.02 C 125.61 114.33 121.12 108.55 116.27 110.28 Z" />
<path fill="#fcfcfc" opacity="1.00" d=" M 165.33 98.40 C 170.58 96.83 177.69 98.84 179.71 104.30 C 180.27 114.84 180.00 125.41 179.95 135.97 C 175.30 135.99 170.67 136.17 166.03 135.93 C 165.50 128.08 166.79 120.06 165.67 112.28 C 164.76 107.25 157.91 110.04 156.21 113.27 C 155.70 120.83 156.23 128.41 155.94 135.97 C 151.30 135.99 146.66 136.17 142.03 135.93 C 141.87 124.35 142.43 112.74 141.12 101.21 C 144.43 98.28 150.03 100.73 153.92 99.09 C 155.69 98.93 155.34 101.81 156.23 102.92 C 159.27 101.41 161.86 98.96 165.33 98.40 Z" />
<path fill="#fcfcfc" opacity="1.00" d=" M 65.17 99.03 C 75.13 99.15 85.01 100.58 95.01 100.05 C 94.19 103.60 96.49 108.51 93.41 111.38 C 89.90 116.50 84.71 120.14 80.82 124.93 C 86.21 125.61 91.48 124.21 96.83 123.94 C 95.28 128.14 95.67 132.82 93.80 136.91 C 83.58 136.77 73.30 134.83 63.14 136.99 C 64.10 133.27 62.11 129.79 62.17 126.22 C 66.88 121.56 71.72 117.01 76.19 112.12 C 71.79 111.94 67.39 112.15 63.00 111.93 C 62.80 107.46 65.09 103.46 65.17 99.03 Z" />
</g>
</svg>
